PathFileType	4	(X/Y/Z)	E:\Qualisys_Data\Carbon_Farble_Plate\Data\Amateur_Runner\S14\T2\S14T2V11_c3d.trc
DataRate	CameraRate	NumFrames	NumMarkers	Units	OrigDataRate	OrigDataStartFrame	OrigNumFrames
200.000000	200.000000	4	39	mm	200.000000	292	334
Frame#	Time	LSHO			RSHO			LICST			RICST			LASIS			LHEEL			RASIS			LTROC			RTROC			SACR			LTH1			LSK4			LTH2			LTH3			RHM5			LSK2			LTH4			RTH1			LTOE			RTH2			RTH3			RTH4			LLEP			RLEP			LSK1			LSK3			RSK1			LHM5			RSK2			LFT1			RSK3			RSK4			LLME			RLME			RTOE			RHEEL			RFT1			RFT2			LFT2			
		X1	Y1	Z1	X2	Y2	Z2	X3	Y3	Z3	X4	Y4	Z4	X5	Y5	Z5	X6	Y6	Z6	X7	Y7	Z7	X8	Y8	Z8	X9	Y9	Z9	X10	Y10	Z10	X11	Y11	Z11	X12	Y12	Z12	X13	Y13	Z13	X14	Y14	Z14	X15	Y15	Z15	X16	Y16	Z16	X17	Y17	Z17	X18	Y18	Z18	X19	Y19	Z19	X20	Y20	Z20	X21	Y21	Z21	X22	Y22	Z22	X23	Y23	Z23	X24	Y24	Z24	X25	Y25	Z25	X26	Y26	Z26	X27	Y27	Z27	X28	Y28	Z28	X29	Y29	Z29	X30	Y30	Z30	X31	Y31	Z31	X32	Y32	Z32	X33	Y33	Z33	X34	Y34	Z34	X35	Y35	Z35	X36	Y36	Z36	X37	Y37	Z37	X38	Y38	Z38	X39	Y39	Z39	

293	1.46	2019.174926757812	1443.308959960938	-474.9559020996094	2004.73779296875	1448.182495117188	-175.3846130371094	1979.280883789062	991.5960083007812	-447.3441162109375	1996.959838867188	1004.322204589844	-169.2614288330078	2022.25	942.755615234375	-423.8770141601562	1558.587158203125	190.4367218017578	-313.5375366210938	2028.1171875	962.766845703125	-189.5593719482422	1879.802612304688	877.9415283203125	-455.5433349609375	1904.971069335938	880.0791625976562	-125.205451965332	1848.005615234375	984.3566284179688	-337.1682739257812	1911.59423828125	647.3468017578125	-453.5637512207031	1693.68798828125	350.6006469726562	-401.1237487792969	1837.988525390625	660.4977416992188	-429.5635375976562	1905.674560546875	550.36767578125	-429.5528259277344	1959.222534179688	108.5371017456055	-129.3720397949219	1752.278198242188	427.7212219238281	-422.0083923339844	1828.207763671875	564.3944702148438	-410.4150695800781	2110.90673828125	712.1613159179688	-129.3065795898438	1753.023193359375	44.77225112915039	-347.2950744628906	2039.3798828125	684.1051635742188	-117.6455764770508	2149.506103515625	621.3541870117188	-152.5747680664062	2073.3818359375	589.3447265625	-133.240478515625	1845.32421875	488.8697204589844	-419.8716735839844	2115.50927734375	535.1096801757812	-137.0332336425781	1819.021606445312	379.4652099609375	-417.1369934082031	1756.3916015625	299.0883483886719	-401.508056640625	2078.940185546875	420.8379516601562	-137.0995483398438	1685.328491210938	56.22161483764648	-408.6835021972656	2006.394897460938	466.3516845703125	-136.9512329101562	1553.056396484375	161.9387664794922	-290.2829895019531	2018.401733398438	338.2394714355469	-149.6607055664062	1955.604858398438	385.0914611816406	-147.8718566894531	1620.652465820312	182.8547058105469	-378.9434204101562	1886.047729492188	223.1996765136719	-165.0254058837891	2036.444702148438	78.5565185546875	-184.2245025634766	1824.752319335938	226.5909271240234	-224.0971069335938	1823.542724609375	191.9542388916016	-249.8157806396484	1808.512573242188	203.4969635009766	-197.5267333984375	1539.991821289062	161.2122802734375	-343.7885131835938
294	1.465	2036.040893554688	1447.5576171875	-473.295654296875	2018.973999023438	1451.531494140625	-174.6389770507812	1996.722290039062	995.2005004882812	-446.37158203125	2012.460815429688	1008.296081542969	-169.2296142578125	2039.317138671875	946.1780395507812	-423.1058654785156	1568.523681640625	199.3659973144531	-315.4153137207031	2043.543334960938	966.7255249023438	-188.5310363769531	1896.382934570312	882.4365234375	-455.15283203125	1921.653076171875	884.1607666015625	-124.6923904418945	1864.625732421875	988.1869506835938	-336.7745971679688	1924.41943359375	651.443359375	-454.4120483398438	1702.77099609375	356.71484375	-402.2964782714844	1850.973999023438	665.80859375	-429.940185546875	1917.449462890625	554.4933471679688	-430.2409362792969	1994.265625	105.72998046875	-129.6195526123047	1762.15576171875	433.7374877929688	-422.6723327636719	1840.123168945312	569.3687133789062	-410.9595336914062	2128.284912109375	715.9219360351562	-129.7255096435547	1755.820922851562	44.06401824951172	-348.4153442382812	2056.624755859375	688.0095825195312	-117.4859848022461	2166.485595703125	625.4730834960938	-153.3903961181641	2090.671630859375	593.7117309570312	-133.5165100097656	1855.454467773438	493.7924499511719	-420.9615478515625	2132.83837890625	538.6122436523438	-138.1667938232422	1828.364379882812	384.9270629882812	-419.1631469726562	1765.840087890625	305.4047546386719	-404.1624145507812	2100.522216796875	423.4291687011719	-137.3132629394531	1688.701293945312	57.56728363037109	-409.7499389648438	2025.964965820312	465.2619934082031	-137.0670166015625	1562.033447265625	171.3306884765625	-291.87109375	2043.502075195312	337.0636291503906	-150.6513824462891	1978.3896484375	381.4123229980469	-148.1477355957031	1628.599975585938	187.6390686035156	-380.4979858398438	1915.741821289062	216.6738586425781	-165.0611419677734	2073.109619140625	79.12915802001953	-184.4973754882812	1854.336669921875	217.3539276123047	-223.5651702880859	1855.020629882812	182.4041900634766	-250.1244964599609	1839.591918945312	193.5371246337891	-197.2393341064453	1548.575561523438	170.8745727539062	-345.5856628417969
295	1.47	2052.406005859375	1451.638305664062	-471.762451171875	2033.23828125	1455.485107421875	-174.2081909179688	2014.527954101562	998.9013061523438	-445.7981872558594	2035.661987304688	1014.4580078125	-169.3822784423828	2056.36669921875	949.4347534179688	-421.9166870117188	1579.423217773438	208.0082702636719	-317.7464599609375	2058.8486328125	970.2149047851562	-187.6432495117188	1912.630981445312	886.3750610351562	-455.2326965332031	1938.375366210938	888.2559204101562	-124.2641220092773	1881.583374023438	992.23046875	-336.1895751953125	1937.210571289062	655.3677368164062	-455.2237854003906	1712.532958984375	362.4851379394531	-403.67236328125	1864.160400390625	670.6080932617188	-429.8895263671875	1929.3408203125	558.6309814453125	-432.1568908691406	2029.491943359375	102.863639831543	-129.5881652832031	1772.2587890625	439.6778259277344	-424.0832824707031	1852.329956054688	574.2194213867188	-411.987060546875	2145.09130859375	719.5070190429688	-129.7925872802734	1758.2958984375	42.23842239379883	-349.253173828125	2073.697265625	691.6952514648438	-117.6969985961914	2183.592529296875	629.379150390625	-154.2830352783203	2107.746826171875	597.1926879882812	-134.7672729492188	1866.277099609375	499.2312316894531	-422.8251647949219	2149.783935546875	542.253173828125	-138.7870483398438	1837.959350585938	390.1982116699219	-421.4914855957031	1775.23681640625	310.9385681152344	-406.4182739257812	2121.302734375	425.0106506347656	-137.9732055664062	1692.035034179688	59.28562545776367	-411.0585021972656	2045.502685546875	463.678955078125	-137.348876953125	1571.52783203125	180.5082092285156	-293.9365844726562	2068.67724609375	336.2109375	-151.3215789794922	2001.5859375	378.3477783203125	-148.2629241943359	1637.9228515625	193.6197052001953	-382.5119934082031	1945.939575195312	210.0877227783203	-165.1553649902344	2109.451904296875	80.35348510742188	-184.8513031005859	1884.44873046875	208.3465576171875	-223.2686920166016	1886.533813476562	173.2344207763672	-250.0419616699219	1870.72802734375	183.4249267578125	-197.6069030761719	1558.310302734375	180.2468566894531	-347.4604797363281
296	1.475	2069.0771484375	1455.469482421875	-470.0711059570312	2047.642211914062	1459.191772460938	-173.4063720703125	2031.850341796875	1002.141845703125	-445.0951538085938	2050.5556640625	1017.810668945312	-167.9642181396484	2073.5576171875	952.5819702148438	-421.4941101074219	1590.973999023438	216.6002502441406	-320.0052185058594	2077.18408203125	975.1178588867188	-187.2070159912109	1928.780395507812	890.2218627929688	-454.619873046875	1955.074462890625	892.1326293945312	-123.4375228881836	1898.0703125	996.5225219726562	-336.491943359375	1950.593139648438	659.545654296875	-456.0471801757812	1722.580322265625	367.9251098632812	-404.6408386230469	1878.024169921875	675.5623168945312	-430.1951599121094	1941.222534179688	562.2183227539062	-433.949462890625	2064.407958984375	100.4048080444336	-129.7731475830078	1782.70849609375	445.2329406738281	-425.041259765625	1864.48095703125	578.8148803710938	-412.6357421875	2162.04345703125	723.1134033203125	-130.0850524902344	1761.017822265625	41.151123046875	-350.4911499023438	2090.36865234375	694.8380126953125	-118.0872116088867	2200.0205078125	632.7894897460938	-155.0478515625	2124.278564453125	600.41064453125	-135.5455627441406	1875.431762695312	504.9685668945312	-426.0309448242188	2166.550048828125	545.2887573242188	-139.9267120361328	1848.118408203125	395.3747253417969	-422.8465881347656	1785.065307617188	316.3177490234375	-408.9541625976562	2142.454345703125	426.6454162597656	-138.3473205566406	1695.968139648438	61.00149917602539	-412.0660400390625	2064.7265625	461.9226989746094	-137.412109375	1581.69677734375	190.0738067626953	-295.8036499023438	2093.510986328125	335.4892883300781	-151.5119171142578	2024.637084960938	374.8301696777344	-148.1682891845703	1646.74267578125	199.1955108642578	-385.5268249511719	1976.080078125	203.8376922607422	-165.5597229003906	2145.722412109375	82.01262664794922	-184.8900604248047	1915.100708007812	199.0780487060547	-223.6732177734375	1918.753051757812	163.9087219238281	-250.2127227783203	1902.120239257812	173.6508331298828	-197.9164428710938	1568.420043945312	189.7323303222656	-349.6868286132812
